<mxfile host="app.diagrams.net" modified="2024-07-10T10:23:11.591Z" agent="Mozilla/5.0 (Macintosh; Intel Mac OS X 10_15_7) AppleWebKit/537.36 (KHTML, like Gecko) Chrome/126.0.0.0 Safari/537.36" etag="6UGJTHaCA5K_kjMeqYz7" version="24.6.4" type="github">
  <diagram name="第 1 页" id="JRSquTvLmn4rE3xj7YdD">
    <mxGraphModel dx="1329" dy="893" grid="0" gridSize="10" guides="1" tooltips="1" connect="1" arrows="1" fold="1" page="0" pageScale="1" pageWidth="827" pageHeight="1169" math="0" shadow="0">
      <root>
        <mxCell id="0" />
        <mxCell id="1" parent="0" />
        <mxCell id="7-GOYLDppsAwh8mH__7D-36" value="" style="swimlane;startSize=0;" vertex="1" parent="1">
          <mxGeometry x="207" y="28" width="740" height="565" as="geometry" />
        </mxCell>
        <mxCell id="7-GOYLDppsAwh8mH__7D-13" value="attributes" style="swimlane;whiteSpace=wrap;html=1;fillColor=#ffe6cc;strokeColor=#d79b00;" vertex="1" parent="7-GOYLDppsAwh8mH__7D-36">
          <mxGeometry x="20" y="381" width="171" height="171" as="geometry">
            <mxRectangle x="72" y="425" width="84" height="26" as="alternateBounds" />
          </mxGeometry>
        </mxCell>
        <mxCell id="7-GOYLDppsAwh8mH__7D-14" value="&lt;div style=&quot;&quot;&gt;&lt;span style=&quot;font-size: 11px; background-color: initial;&quot;&gt;compiler-time information&lt;/span&gt;&lt;/div&gt;&lt;font style=&quot;font-size: 11px;&quot;&gt;&amp;nbsp;about operations&lt;/font&gt;" style="text;html=1;align=center;verticalAlign=middle;resizable=0;points=[];autosize=1;strokeColor=none;fillColor=none;" vertex="1" parent="7-GOYLDppsAwh8mH__7D-13">
          <mxGeometry x="15" y="65" width="141" height="41" as="geometry" />
        </mxCell>
        <mxCell id="7-GOYLDppsAwh8mH__7D-37" value="type" style="swimlane;whiteSpace=wrap;html=1;fillColor=#dae8fc;strokeColor=#6c8ebf;" vertex="1" parent="7-GOYLDppsAwh8mH__7D-36">
          <mxGeometry x="548" y="381" width="171" height="171" as="geometry" />
        </mxCell>
        <mxCell id="7-GOYLDppsAwh8mH__7D-34" value="value" style="swimlane;whiteSpace=wrap;html=1;" vertex="1" parent="7-GOYLDppsAwh8mH__7D-37">
          <mxGeometry x="15.04" y="43" width="140.91" height="116" as="geometry">
            <mxRectangle x="72" y="425" width="84" height="26" as="alternateBounds" />
          </mxGeometry>
        </mxCell>
        <mxCell id="7-GOYLDppsAwh8mH__7D-35" value="&lt;div style=&quot;&quot;&gt;&lt;span style=&quot;font-size: 11px;&quot;&gt;the data at runtime&lt;/span&gt;&lt;br&gt;&lt;/div&gt;" style="text;html=1;align=center;verticalAlign=middle;resizable=0;points=[];autosize=1;strokeColor=none;fillColor=none;" vertex="1" parent="7-GOYLDppsAwh8mH__7D-34">
          <mxGeometry x="19.96" y="52" width="110" height="26" as="geometry" />
        </mxCell>
        <mxCell id="7-GOYLDppsAwh8mH__7D-15" value="operation" style="swimlane;whiteSpace=wrap;html=1;textShadow=0;fillColor=#d5e8d4;strokeColor=#82b366;" vertex="1" parent="7-GOYLDppsAwh8mH__7D-36">
          <mxGeometry x="15" y="70" width="714" height="283" as="geometry" />
        </mxCell>
        <mxCell id="7-GOYLDppsAwh8mH__7D-16" value="region" style="swimlane;whiteSpace=wrap;html=1;" vertex="1" parent="7-GOYLDppsAwh8mH__7D-15">
          <mxGeometry x="10" y="72.5" width="340" height="200" as="geometry" />
        </mxCell>
        <mxCell id="7-GOYLDppsAwh8mH__7D-20" value="block" style="swimlane;whiteSpace=wrap;html=1;" vertex="1" parent="7-GOYLDppsAwh8mH__7D-16">
          <mxGeometry x="4" y="65" width="156" height="124" as="geometry" />
        </mxCell>
        <mxCell id="7-GOYLDppsAwh8mH__7D-21" value="operation" style="swimlane;whiteSpace=wrap;html=1;fillColor=#d5e8d4;strokeColor=#82b366;" vertex="1" parent="7-GOYLDppsAwh8mH__7D-20">
          <mxGeometry x="6" y="40.5" width="65" height="74.5" as="geometry" />
        </mxCell>
        <mxCell id="7-GOYLDppsAwh8mH__7D-23" value="operation" style="swimlane;whiteSpace=wrap;html=1;fillColor=#d5e8d4;strokeColor=#82b366;" vertex="1" parent="7-GOYLDppsAwh8mH__7D-20">
          <mxGeometry x="84" y="40.5" width="65" height="74.5" as="geometry" />
        </mxCell>
        <mxCell id="7-GOYLDppsAwh8mH__7D-24" value="block" style="swimlane;whiteSpace=wrap;html=1;" vertex="1" parent="7-GOYLDppsAwh8mH__7D-16">
          <mxGeometry x="174" y="65" width="156" height="124" as="geometry" />
        </mxCell>
        <mxCell id="7-GOYLDppsAwh8mH__7D-25" value="operation" style="swimlane;whiteSpace=wrap;html=1;fillColor=#d5e8d4;strokeColor=#82b366;" vertex="1" parent="7-GOYLDppsAwh8mH__7D-24">
          <mxGeometry x="6" y="40.5" width="65" height="74.5" as="geometry" />
        </mxCell>
        <mxCell id="7-GOYLDppsAwh8mH__7D-26" value="operation" style="swimlane;whiteSpace=wrap;html=1;fillColor=#d5e8d4;strokeColor=#82b366;" vertex="1" parent="7-GOYLDppsAwh8mH__7D-24">
          <mxGeometry x="84" y="40.5" width="65" height="74.5" as="geometry" />
        </mxCell>
        <mxCell id="7-GOYLDppsAwh8mH__7D-27" value="region" style="swimlane;whiteSpace=wrap;html=1;" vertex="1" parent="7-GOYLDppsAwh8mH__7D-15">
          <mxGeometry x="366" y="72.5" width="340" height="200" as="geometry" />
        </mxCell>
        <mxCell id="7-GOYLDppsAwh8mH__7D-28" value="block" style="swimlane;whiteSpace=wrap;html=1;" vertex="1" parent="7-GOYLDppsAwh8mH__7D-27">
          <mxGeometry x="4" y="65" width="156" height="124" as="geometry" />
        </mxCell>
        <mxCell id="7-GOYLDppsAwh8mH__7D-29" value="operation" style="swimlane;whiteSpace=wrap;html=1;fillColor=#d5e8d4;strokeColor=#82b366;" vertex="1" parent="7-GOYLDppsAwh8mH__7D-28">
          <mxGeometry x="6" y="40.5" width="65" height="74.5" as="geometry" />
        </mxCell>
        <mxCell id="7-GOYLDppsAwh8mH__7D-30" value="operation" style="swimlane;whiteSpace=wrap;html=1;fillColor=#d5e8d4;strokeColor=#82b366;" vertex="1" parent="7-GOYLDppsAwh8mH__7D-28">
          <mxGeometry x="84" y="40.5" width="65" height="74.5" as="geometry" />
        </mxCell>
        <mxCell id="7-GOYLDppsAwh8mH__7D-31" value="block" style="swimlane;whiteSpace=wrap;html=1;" vertex="1" parent="7-GOYLDppsAwh8mH__7D-27">
          <mxGeometry x="174" y="65" width="156" height="124" as="geometry" />
        </mxCell>
        <mxCell id="7-GOYLDppsAwh8mH__7D-32" value="operation" style="swimlane;whiteSpace=wrap;html=1;fillColor=#d5e8d4;strokeColor=#82b366;" vertex="1" parent="7-GOYLDppsAwh8mH__7D-31">
          <mxGeometry x="6" y="40.5" width="65" height="74.5" as="geometry" />
        </mxCell>
        <mxCell id="7-GOYLDppsAwh8mH__7D-33" value="operation" style="swimlane;whiteSpace=wrap;html=1;fillColor=#d5e8d4;strokeColor=#82b366;" vertex="1" parent="7-GOYLDppsAwh8mH__7D-31">
          <mxGeometry x="84" y="40.5" width="65" height="74.5" as="geometry" />
        </mxCell>
        <mxCell id="7-GOYLDppsAwh8mH__7D-6" value="&lt;span style=&quot;text-align: left;&quot;&gt;instructions&lt;/span&gt;" style="ellipse;whiteSpace=wrap;html=1;fillColor=#d5e8d4;strokeColor=#82b366;" vertex="1" parent="7-GOYLDppsAwh8mH__7D-36">
          <mxGeometry x="-179" y="106.5" width="100" height="60" as="geometry" />
        </mxCell>
        <mxCell id="7-GOYLDppsAwh8mH__7D-9" style="edgeStyle=orthogonalEdgeStyle;rounded=0;orthogonalLoop=1;jettySize=auto;html=1;exitX=1;exitY=0.5;exitDx=0;exitDy=0;curved=1;entryX=0;entryY=0.5;entryDx=0;entryDy=0;" edge="1" parent="7-GOYLDppsAwh8mH__7D-36" source="7-GOYLDppsAwh8mH__7D-6" target="7-GOYLDppsAwh8mH__7D-15">
          <mxGeometry relative="1" as="geometry">
            <mxPoint x="21" y="245" as="targetPoint" />
          </mxGeometry>
        </mxCell>
        <mxCell id="7-GOYLDppsAwh8mH__7D-7" value="&lt;span style=&quot;text-align: left;&quot;&gt;functions&lt;/span&gt;" style="ellipse;whiteSpace=wrap;html=1;fillColor=#d5e8d4;strokeColor=#82b366;" vertex="1" parent="7-GOYLDppsAwh8mH__7D-36">
          <mxGeometry x="-179" y="181.5" width="100" height="60" as="geometry" />
        </mxCell>
        <mxCell id="7-GOYLDppsAwh8mH__7D-8" value="&lt;span style=&quot;text-align: left;&quot;&gt;modules&lt;/span&gt;" style="ellipse;whiteSpace=wrap;html=1;fillColor=#d5e8d4;strokeColor=#82b366;" vertex="1" parent="7-GOYLDppsAwh8mH__7D-36">
          <mxGeometry x="-179" y="256.5" width="100" height="60" as="geometry" />
        </mxCell>
        <mxCell id="7-GOYLDppsAwh8mH__7D-12" value="建模" style="text;html=1;align=center;verticalAlign=middle;whiteSpace=wrap;rounded=0;" vertex="1" parent="7-GOYLDppsAwh8mH__7D-36">
          <mxGeometry x="-79" y="184.5" width="60" height="30" as="geometry" />
        </mxCell>
        <mxCell id="7-GOYLDppsAwh8mH__7D-10" style="edgeStyle=orthogonalEdgeStyle;rounded=0;orthogonalLoop=1;jettySize=auto;html=1;exitX=1;exitY=0.5;exitDx=0;exitDy=0;entryX=0;entryY=0.5;entryDx=0;entryDy=0;" edge="1" parent="7-GOYLDppsAwh8mH__7D-36" source="7-GOYLDppsAwh8mH__7D-7" target="7-GOYLDppsAwh8mH__7D-15">
          <mxGeometry relative="1" as="geometry">
            <mxPoint x="16" y="245" as="targetPoint" />
          </mxGeometry>
        </mxCell>
        <mxCell id="7-GOYLDppsAwh8mH__7D-11" style="edgeStyle=orthogonalEdgeStyle;rounded=0;orthogonalLoop=1;jettySize=auto;html=1;exitX=1;exitY=0.5;exitDx=0;exitDy=0;entryX=0;entryY=0.5;entryDx=0;entryDy=0;curved=1;" edge="1" parent="7-GOYLDppsAwh8mH__7D-36" source="7-GOYLDppsAwh8mH__7D-8" target="7-GOYLDppsAwh8mH__7D-15">
          <mxGeometry relative="1" as="geometry">
            <mxPoint x="16" y="245" as="targetPoint" />
          </mxGeometry>
        </mxCell>
        <mxCell id="7-GOYLDppsAwh8mH__7D-39" value="Dialect (unique namespace)" style="text;html=1;align=center;verticalAlign=middle;whiteSpace=wrap;rounded=0;fontStyle=1;fontSize=15;" vertex="1" parent="7-GOYLDppsAwh8mH__7D-36">
          <mxGeometry x="253" y="12" width="254" height="30" as="geometry" />
        </mxCell>
      </root>
    </mxGraphModel>
  </diagram>
</mxfile>
